<svg width="24" height="24" viewBox="0 0 24 24" fill="none" xmlns="http://www.w3.org/2000/svg">
<path d="M17.2827 10.278C17.5743 9.98376 17.5722 9.50889 17.278 9.21731C16.9838 8.92573 16.5089 8.92784 16.2173 9.22204L14.47 10.985C13.7609 11.7005 13.2728 12.1913 12.8593 12.5234C12.4576 12.846 12.1996 12.9567 11.9685 12.9861C11.8234 13.0046 11.6766 13.0046 11.5315 12.9861C11.3004 12.9567 11.0424 12.846 10.6407 12.5234C10.2272 12.1913 9.73914 11.7005 9.03 10.985L7.28269 9.22204C6.99111 8.92784 6.51624 8.92573 6.22204 9.21731C5.92784 9.50889 5.92573 9.98376 6.21731 10.278L7.99609 12.0727C8.66604 12.7487 9.21359 13.3011 9.70146 13.6929C10.2088 14.1004 10.7237 14.3953 11.3418 14.4741C11.6129 14.5086 11.8871 14.5086 12.1582 14.4741C12.7763 14.3953 13.2912 14.1004 13.7985 13.6929C14.2864 13.3011 14.834 12.7487 15.5039 12.0727L17.2827 10.278Z" fill="#2D264B"/>
</svg>
