<svg width="24" height="24" viewBox="0 0 24 24" fill="none" xmlns="http://www.w3.org/2000/svg">
<path fill-rule="evenodd" clip-rule="evenodd" d="M20.8468 3.93563C19.5193 2.58179 18.0414 2.16297 16.6535 2.26457C15.3031 2.36343 14.087 2.9492 13.1988 3.51263C12.4984 3.95695 11.5014 3.95695 10.8009 3.51263C9.9127 2.94921 8.6966 2.36344 7.34624 2.26459C5.95834 2.16299 4.48046 2.58181 3.1529 3.93563C1.58562 5.53392 1.0939 7.50695 1.29136 9.50271C1.48653 11.4755 2.35186 13.4809 3.50598 15.2579C4.66317 17.0396 6.14136 18.6393 7.62433 19.8008C9.07467 20.9368 10.6527 21.75 11.9999 21.75C13.3471 21.75 14.9251 20.9368 16.3754 19.8008C17.8584 18.6393 19.3366 17.0396 20.4938 15.2579C21.6479 13.4809 22.5132 11.4755 22.7084 9.50271C22.9058 7.50694 22.4141 5.53392 20.8468 3.93563Z" fill="url(#paint0_linear_158_1415)"/>
<path d="M7.78854 6.7011C8.17573 6.55396 8.37034 6.1208 8.2232 5.7336C8.07606 5.3464 7.64289 5.15179 7.25569 5.29893C6.68495 5.51583 6.13314 5.86845 5.61692 6.38026C4.96258 7.02901 4.52664 7.7657 4.28301 8.55574C4.16095 8.95156 4.38288 9.37139 4.7787 9.49344C5.17452 9.6155 5.59435 9.39358 5.71641 8.99776C5.88637 8.4466 6.19127 7.9231 6.67302 7.44546C7.0513 7.07041 7.42783 6.83818 7.78854 6.7011Z" fill="#E6E8EC"/>
<defs>
<linearGradient id="paint0_linear_158_1415" x1="1.25" y1="21.1018" x2="23.82" y2="19.6505" gradientUnits="userSpaceOnUse">
<stop stop-color="#673AB7"/>
<stop offset="0.25" stop-color="#5B38A9"/>
<stop offset="0.5" stop-color="#50359C"/>
<stop offset="0.75" stop-color="#45328E"/>
<stop offset="1" stop-color="#3C2F80"/>
</linearGradient>
</defs>
</svg>
