<svg width="24" height="24" viewBox="0 0 24 24" fill="none" xmlns="http://www.w3.org/2000/svg">
<path fill-rule="evenodd" clip-rule="evenodd" d="M9.32532 8.76556C9.7143 6.50343 10.3545 4.24621 10.7049 3.09236C11.1274 3.03154 11.5597 3 12 3C12.4403 3 12.8726 3.03154 13.2951 3.09236C13.6455 4.24621 14.2857 6.50343 14.6747 8.76556C13.7255 8.91029 12.8084 9 12 9C11.1916 9 10.2745 8.91029 9.32532 8.76556ZM16.6416 8.40286C16.3451 6.68675 15.9162 4.99058 15.5649 3.73343C17.3831 4.51872 18.8921 5.88706 19.8549 7.60315C18.9684 7.85312 17.8394 8.14819 16.6416 8.40286ZM16.9152 10.3891C18.3312 10.093 19.6561 9.74113 20.6369 9.46011C20.8731 10.2648 21 11.1169 21 12C21 12.4403 20.9685 12.8727 20.9076 13.2951C20.0293 13.5619 18.5077 13.9977 16.8295 14.3625C16.9347 13.5516 17 12.7484 17 12C17 11.4825 16.9688 10.9403 16.9152 10.3891ZM16.4781 16.4781C17.8823 16.2002 19.2247 15.8561 20.2666 15.5649C19.3579 17.6688 17.6688 19.3579 15.5649 20.2666C15.8561 19.2247 16.2002 17.8823 16.4781 16.4781ZM14.3625 16.8295C13.9977 18.5077 13.5619 20.0293 13.2951 20.9076C12.8727 20.9685 12.4403 21 12 21C11.5597 21 11.1273 20.9685 10.7049 20.9076C10.4381 20.0293 10.0023 18.5077 9.63753 16.8295C10.4484 16.9347 11.2516 17 12 17C12.7484 17 13.5516 16.9347 14.3625 16.8295ZM7.5219 16.4781C7.79978 17.8823 8.14394 19.2247 8.4351 20.2666C6.33119 19.3579 4.64208 17.6688 3.7334 15.5649C4.77528 15.8561 6.11768 16.2002 7.5219 16.4781ZM7.17051 14.3625C5.49234 13.9977 3.97071 13.5619 3.09237 13.2951C3.03154 12.8727 3 12.4403 3 12C3 11.1169 3.12691 10.2648 3.36311 9.46011C4.34386 9.74113 5.66882 10.093 7.0848 10.3891C7.03117 10.9403 7 11.4825 7 12C7 12.7484 7.06528 13.5516 7.17051 14.3625ZM7.35841 8.40286C6.16056 8.14819 5.03162 7.85312 4.14506 7.60315C5.1079 5.88706 6.61691 4.51872 8.43506 3.73343C8.08376 4.99058 7.65492 6.68674 7.35841 8.40286ZM9 12C9 11.607 9.02125 11.1869 9.06003 10.7482C10.065 10.9002 11.0748 11 12 11C12.9252 11 13.935 10.9002 14.94 10.7482C14.9788 11.1869 15 11.607 15 12C15 12.8301 14.9054 13.7754 14.7534 14.7534C13.7754 14.9054 12.8301 15 12 15C11.1699 15 10.2246 14.9054 9.24656 14.7534C9.09461 13.7754 9 12.8301 9 12ZM12 1C11.2209 1 10.4597 1.08115 9.72468 1.23581C6.12345 1.99359 3.1743 4.50977 1.81285 7.84308C1.28849 9.12689 1 10.531 1 12C1 12.7791 1.08115 13.5403 1.23581 14.2753C2.13012 18.5254 5.47458 21.8699 9.72469 22.7642C10.4597 22.9188 11.2209 23 12 23C12.7791 23 13.5403 22.9188 14.2753 22.7642C18.5254 21.8699 21.8699 18.5254 22.7642 14.2753C22.9188 13.5403 23 12.7791 23 12C23 10.5321 22.712 9.12908 22.1884 7.84609C20.8275 4.51128 17.8776 1.99381 14.2753 1.23581C13.5403 1.08115 12.7791 1 12 1Z" fill="#3C2F80"/>
</svg>
