<svg width="24" height="24" viewBox="0 0 24 24" fill="none" xmlns="http://www.w3.org/2000/svg">
<path d="M14.278 7.28269C14.5722 6.99111 14.5743 6.51624 14.2827 6.22204C13.9911 5.92784 13.5162 5.92573 13.222 6.21731L11.4273 7.9961C10.7513 8.66604 10.1989 9.21359 9.80706 9.70146C9.39963 10.2088 9.10469 10.7237 9.02591 11.3418C8.99136 11.6129 8.99136 11.8871 9.02591 12.1582C9.10469 12.7763 9.39963 13.2912 9.80706 13.7985C10.1989 14.2864 10.7513 14.834 11.4273 15.5039L13.222 17.2827C13.5162 17.5743 13.9911 17.5722 14.2827 17.278C14.5743 16.9838 14.5722 16.5089 14.278 16.2173L12.515 14.47C11.7995 13.7609 11.3087 13.2728 10.9766 12.8593C10.654 12.4576 10.5433 12.1996 10.5139 11.9685C10.4954 11.8234 10.4954 11.6766 10.5139 11.5315C10.5433 11.3004 10.654 11.0424 10.9766 10.6407C11.3087 10.2272 11.7995 9.73914 12.515 9.03L14.278 7.28269Z" fill="#2D264B"/>
</svg>
