<svg width="22" height="22" viewBox="0 0 22 22" fill="none" xmlns="http://www.w3.org/2000/svg">
<path fill-rule="evenodd" clip-rule="evenodd" d="M2.75 0C1.23122 0 0 1.23122 0 2.75C0 4.26878 1.23122 5.5 2.75 5.5C4.26878 5.5 5.5 4.26878 5.5 2.75C5.5 1.23122 4.26878 0 2.75 0ZM1.5 2.75C1.5 2.05964 2.05964 1.5 2.75 1.5C3.44036 1.5 4 2.05964 4 2.75C4 3.44036 3.44036 4 2.75 4C2.05964 4 1.5 3.44036 1.5 2.75Z" fill="#2D264B"/>
<path fill-rule="evenodd" clip-rule="evenodd" d="M10.75 0C9.23122 0 8.00001 1.23122 8.00001 2.75C8.00001 4.26878 9.23122 5.5 10.75 5.5C12.2688 5.5 13.5 4.26878 13.5 2.75C13.5 1.23122 12.2688 0 10.75 0ZM9.50001 2.75C9.50001 2.05964 10.0596 1.5 10.75 1.5C11.4404 1.5 12 2.05964 12 2.75C12 3.44036 11.4404 4 10.75 4C10.0596 4 9.50001 3.44036 9.50001 2.75Z" fill="#2D264B"/>
<path fill-rule="evenodd" clip-rule="evenodd" d="M18.75 0C17.2312 0 16 1.23122 16 2.75C16 4.26878 17.2312 5.5 18.75 5.5C20.2688 5.5 21.5 4.26878 21.5 2.75C21.5 1.23122 20.2688 0 18.75 0ZM17.5 2.75C17.5 2.05964 18.0597 1.5 18.75 1.5C19.4404 1.5 20 2.05964 20 2.75C20 3.44036 19.4404 4 18.75 4C18.0597 4 17.5 3.44036 17.5 2.75Z" fill="#2D264B"/>
<path fill-rule="evenodd" clip-rule="evenodd" d="M2.75 8C1.23122 8 0 9.23122 0 10.75C0 12.2688 1.23122 13.5 2.75 13.5C4.26878 13.5 5.5 12.2688 5.5 10.75C5.5 9.23122 4.26878 8 2.75 8ZM1.5 10.75C1.5 10.0596 2.05964 9.5 2.75 9.5C3.44036 9.5 4 10.0596 4 10.75C4 11.4404 3.44036 12 2.75 12C2.05964 12 1.5 11.4404 1.5 10.75Z" fill="#2D264B"/>
<path fill-rule="evenodd" clip-rule="evenodd" d="M10.75 8C9.23122 8 8 9.23122 8 10.75C8 12.2688 9.23122 13.5 10.75 13.5C12.2688 13.5 13.5 12.2688 13.5 10.75C13.5 9.23122 12.2688 8 10.75 8ZM9.5 10.75C9.5 10.0596 10.0596 9.5 10.75 9.5C11.4404 9.5 12 10.0596 12 10.75C12 11.4404 11.4404 12 10.75 12C10.0596 12 9.5 11.4404 9.5 10.75Z" fill="#2D264B"/>
<path fill-rule="evenodd" clip-rule="evenodd" d="M18.75 8C17.2312 8 16 9.23122 16 10.75C16 12.2688 17.2312 13.5 18.75 13.5C20.2688 13.5 21.5 12.2688 21.5 10.75C21.5 9.23122 20.2688 8 18.75 8ZM17.5 10.75C17.5 10.0596 18.0597 9.5 18.75 9.5C19.4404 9.5 20 10.0596 20 10.75C20 11.4404 19.4404 12 18.75 12C18.0597 12 17.5 11.4404 17.5 10.75Z" fill="#2D264B"/>
<path fill-rule="evenodd" clip-rule="evenodd" d="M2.75 16C1.23122 16 0 17.2312 0 18.75C0 20.2688 1.23122 21.5 2.75 21.5C4.26878 21.5 5.5 20.2688 5.5 18.75C5.5 17.2312 4.26878 16 2.75 16ZM1.5 18.75C1.5 18.0596 2.05964 17.5 2.75 17.5C3.44036 17.5 4 18.0596 4 18.75C4 19.4404 3.44036 20 2.75 20C2.05964 20 1.5 19.4404 1.5 18.75Z" fill="#2D264B"/>
<path fill-rule="evenodd" clip-rule="evenodd" d="M10.75 16C9.23122 16 8.00001 17.2312 8.00001 18.75C8.00001 20.2688 9.23122 21.5 10.75 21.5C12.2688 21.5 13.5 20.2688 13.5 18.75C13.5 17.2312 12.2688 16 10.75 16ZM9.50001 18.75C9.50001 18.0596 10.0597 17.5 10.75 17.5C11.4404 17.5 12 18.0596 12 18.75C12 19.4404 11.4404 20 10.75 20C10.0596 20 9.50001 19.4404 9.50001 18.75Z" fill="#2D264B"/>
<path fill-rule="evenodd" clip-rule="evenodd" d="M18.75 16C17.2312 16 16 17.2312 16 18.75C16 20.2688 17.2312 21.5 18.75 21.5C20.2688 21.5 21.5 20.2688 21.5 18.75C21.5 17.2312 20.2688 16 18.75 16ZM17.5 18.75C17.5 18.0596 18.0597 17.5 18.75 17.5C19.4404 17.5 20 18.0596 20 18.75C20 19.4404 19.4404 20 18.75 20C18.0597 20 17.5 19.4404 17.5 18.75Z" fill="#2D264B"/>
</svg>
