<svg width="22" height="22" viewBox="0 0 22 22" fill="none" xmlns="http://www.w3.org/2000/svg">
<path fill-rule="evenodd" clip-rule="evenodd" d="M2.75 0.5C1.23122 0.5 0 1.73122 0 3.25C0 4.76878 1.23122 6 2.75 6C4.26878 6 5.5 4.76878 5.5 3.25C5.5 1.73122 4.26878 0.5 2.75 0.5Z" fill="#2D264B"/>
<path fill-rule="evenodd" clip-rule="evenodd" d="M10.75 0.5C9.23122 0.5 8.00001 1.73122 8.00001 3.25C8.00001 4.76878 9.23122 6 10.75 6C12.2688 6 13.5 4.76878 13.5 3.25C13.5 1.73122 12.2688 0.5 10.75 0.5Z" fill="#2D264B"/>
<path fill-rule="evenodd" clip-rule="evenodd" d="M18.75 0.5C17.2312 0.5 16 1.73122 16 3.25C16 4.76878 17.2312 6 18.75 6C20.2688 6 21.5 4.76878 21.5 3.25C21.5 1.73122 20.2688 0.5 18.75 0.5Z" fill="#2D264B"/>
<path fill-rule="evenodd" clip-rule="evenodd" d="M2.75 8.5C1.23122 8.5 0 9.73122 0 11.25C0 12.7688 1.23122 14 2.75 14C4.26878 14 5.5 12.7688 5.5 11.25C5.5 9.73122 4.26878 8.5 2.75 8.5Z" fill="#2D264B"/>
<path fill-rule="evenodd" clip-rule="evenodd" d="M10.75 8.5C9.23122 8.5 8 9.73122 8 11.25C8 12.7688 9.23122 14 10.75 14C12.2688 14 13.5 12.7688 13.5 11.25C13.5 9.73122 12.2688 8.5 10.75 8.5Z" fill="#2D264B"/>
<path fill-rule="evenodd" clip-rule="evenodd" d="M18.75 8.5C17.2312 8.5 16 9.73122 16 11.25C16 12.7688 17.2312 14 18.75 14C20.2688 14 21.5 12.7688 21.5 11.25C21.5 9.73122 20.2688 8.5 18.75 8.5Z" fill="#2D264B"/>
<path fill-rule="evenodd" clip-rule="evenodd" d="M2.75 16.5C1.23122 16.5 0 17.7312 0 19.25C0 20.7688 1.23122 22 2.75 22C4.26878 22 5.5 20.7688 5.5 19.25C5.5 17.7312 4.26878 16.5 2.75 16.5Z" fill="#2D264B"/>
<path fill-rule="evenodd" clip-rule="evenodd" d="M10.75 16.5C9.23122 16.5 8.00001 17.7312 8.00001 19.25C8.00001 20.7688 9.23122 22 10.75 22C12.2688 22 13.5 20.7688 13.5 19.25C13.5 17.7312 12.2688 16.5 10.75 16.5Z" fill="#2D264B"/>
<path fill-rule="evenodd" clip-rule="evenodd" d="M18.75 16.5C17.2312 16.5 16 17.7312 16 19.25C16 20.7688 17.2312 22 18.75 22C20.2688 22 21.5 20.7688 21.5 19.25C21.5 17.7312 20.2688 16.5 18.75 16.5Z" fill="#2D264B"/>
</svg>
