<svg width="24" height="24" viewBox="0 0 24 24" fill="none" xmlns="http://www.w3.org/2000/svg">
<path d="M11.5315 10.5139C11.6766 10.4954 11.8234 10.4954 11.9685 10.5139C12.1996 10.5433 12.4576 10.654 12.8593 10.9766C13.2728 11.3087 13.7609 11.7995 14.47 12.515L16.2173 14.278C16.5089 14.5722 16.9838 14.5743 17.278 14.2827C17.5722 13.9911 17.5743 13.5162 17.2827 13.222L15.5039 11.4273C14.834 10.7513 14.2864 10.1989 13.7985 9.80706C13.2912 9.39963 12.7763 9.10469 12.1582 9.02591C11.8871 8.99136 11.6129 8.99136 11.3418 9.02591C10.7237 9.10469 10.2088 9.39963 9.70146 9.80706C9.21358 10.1989 8.66604 10.7513 7.99609 11.4273L6.21731 13.222C5.92573 13.5162 5.92784 13.9911 6.22204 14.2827C6.51624 14.5743 6.99111 14.5722 7.28269 14.278L9.03 12.515C9.73914 11.7995 10.2272 11.3087 10.6407 10.9766C11.0424 10.654 11.3004 10.5433 11.5315 10.5139Z" fill="#2D264B"/>
</svg>
